<?xml version="1.0" encoding="UTF-8" standalone="no"?><!-- Generator: Gravit.io --><svg xmlns="http://www.w3.org/2000/svg" xmlns:xlink="http://www.w3.org/1999/xlink" style="isolation:isolate" viewBox="0 0 15 15" width="15pt" height="15pt"><defs><clipPath id="_clipPath_iwici4gjFek5GymI6a29v0kWspeKd5Of"><rect width="15" height="15"/></clipPath></defs><g clip-path="url(#_clipPath_iwici4gjFek5GymI6a29v0kWspeKd5Of)"><path d="M 2.82 2.5 L 13.18 2.5 C 13.909 2.5 14.5 3.091 14.5 3.82 L 14.5 12.18 C 14.5 12.909 13.909 13.5 13.18 13.5 L 2.82 13.5 C 2.091 13.5 1.5 12.909 1.5 12.18 L 1.5 3.82 C 1.5 3.091 2.091 2.5 2.82 2.5 Z" style="stroke:none;fill:#FFFFFF;stroke-miterlimit:10;"/><path d="M 2.82 2.5 L 13.18 2.5 C 13.909 2.5 14.5 3.091 14.5 3.82 L 14.5 12.18 C 14.5 12.909 13.909 13.5 13.18 13.5 L 2.82 13.5 C 2.091 13.5 1.5 12.909 1.5 12.18 L 1.5 3.82 C 1.5 3.091 2.091 2.5 2.82 2.5 Z" style="fill:none;stroke:#000000;stroke-width:0.8;stroke-linecap:square;stroke-miterlimit:2;"/><g opacity="0.19"><line x1="1.477" y1="3.961" x2="13.547" y2="4.008" vector-effect="non-scaling-stroke" stroke-width="0.3" stroke="rgb(151,179,255)" stroke-linejoin="miter" stroke-linecap="square" stroke-miterlimit="3"/></g><g opacity="0.19"><line x1="1.477" y1="5.953" x2="13.547" y2="6" vector-effect="non-scaling-stroke" stroke-width="0.3" stroke="rgb(151,179,255)" stroke-linejoin="miter" stroke-linecap="square" stroke-miterlimit="3"/></g><g opacity="0.19"><line x1="1.477" y1="7.945" x2="13.547" y2="7.992" vector-effect="non-scaling-stroke" stroke-width="0.3" stroke="rgb(151,179,255)" stroke-linejoin="miter" stroke-linecap="square" stroke-miterlimit="3"/></g><g opacity="0.19"><line x1="1.477" y1="9.938" x2="13.547" y2="9.984" vector-effect="non-scaling-stroke" stroke-width="0.3" stroke="rgb(151,179,255)" stroke-linejoin="miter" stroke-linecap="square" stroke-miterlimit="3"/></g><g opacity="0.19"><line x1="1.477" y1="11.93" x2="13.547" y2="11.977" vector-effect="non-scaling-stroke" stroke-width="0.3" stroke="rgb(151,179,255)" stroke-linejoin="miter" stroke-linecap="square" stroke-miterlimit="3"/></g></g></svg>