<?xml version="1.0" encoding="UTF-8" standalone="no"?><!-- Generator: Gravit.io --><svg xmlns="http://www.w3.org/2000/svg" xmlns:xlink="http://www.w3.org/1999/xlink" style="isolation:isolate" viewBox="0 0 15 15" width="15pt" height="15pt"><defs><clipPath id="_clipPath_QbomDHkJS9O14cgHacsl85VcSsGLFnIk"><rect width="15" height="15"/></clipPath></defs><g clip-path="url(#_clipPath_QbomDHkJS9O14cgHacsl85VcSsGLFnIk)"><g><path d=" M 1.733 5.382 Q 1.999 4.24 2.193 4.485 Q 2.387 4.73 7.712 4.485 Q 8.28 5.235 8.632 5.382 Q 8.984 5.529 14.611 5.382 Q 14.299 13.946 13.242 14.135 Q 12.186 14.324 1.142 14.135 Q 0.928 9.814 1.733 5.382 Z " fill="rgb(236,234,234)"/><path d=" M 9.557 6.615 C 9.578 6.511 9.643 6.436 9.702 6.448 C 9.762 6.459 9.794 6.553 9.773 6.657 C 9.753 6.762 9.688 6.837 9.628 6.825 C 9.569 6.813 9.537 6.719 9.557 6.615 Z " fill="rgb(242,186,129)"/><path d=" M 8.617 6.457 C 8.624 6.357 8.679 6.28 8.74 6.284 C 8.8 6.289 8.844 6.373 8.837 6.472 C 8.829 6.572 8.775 6.649 8.714 6.645 C 8.654 6.64 8.61 6.556 8.617 6.457 Z " fill="rgb(242,186,129)"/><path d="M 8.975 5.14 L 9.958 5.333 C 10.235 5.387 10.415 5.656 10.36 5.932 L 10.294 6.268 C 10.24 6.545 9.972 6.725 9.695 6.67 L 8.712 6.477 C 8.435 6.423 8.255 6.154 8.31 5.878 L 8.376 5.542 C 8.43 5.265 8.698 5.085 8.975 5.14 Z" style="stroke:none;fill:#FBFFDA;stroke-miterlimit:10;"/><path d=" M 9.411 5.537 Q 6.917 5.461 7.714 3.232 Q 8.51 1.003 10.183 1.611 Q 11.606 1.947 11.811 4.037 Q 12.017 6.127 9.411 5.537 Z " fill="rgb(251,255,218)"/><path d=" M 9.243 1.606 Q 8.981 1.336 9.215 1.063 C 9.45 0.79 9.375 1.541 9.433 1.553 C 9.49 1.566 9.763 1.074 9.629 1.01 C 9.495 0.945 10.064 1.204 9.718 1.699 Q 9.371 2.194 9.243 1.606 Z " fill="rgb(251,255,218)"/><path d=" M 10.141 4.56 C 10.192 4.298 10.447 4.127 10.708 4.179 C 10.97 4.23 11.141 4.485 11.09 4.747 C 11.038 5.008 10.784 5.179 10.522 5.128 C 10.26 5.076 10.089 4.822 10.141 4.56 Z " fill="rgb(68,68,68)"/><path d=" M 8.113 4.161 C 8.165 3.9 8.419 3.729 8.681 3.78 C 8.943 3.832 9.114 4.086 9.062 4.348 C 9.011 4.61 8.756 4.781 8.495 4.729 C 8.233 4.678 8.062 4.423 8.113 4.161 Z " fill="rgb(68,68,68)"/><path d=" M 9.313 4.442 L 9.96 4.569 Q 9.814 4.95 9.538 4.89 Q 9.262 4.829 9.313 4.442 Z " fill="rgb(255,202,88)"/><path d=" M 8.438 5.435 Q 7.563 5.026 7.523 5.139 C 7.483 5.252 8.367 5.777 8.34 5.776" fill="rgb(251,255,218)"/><path d=" M 0.694 5.973 Q 0.953 4.832 1.142 5.077 Q 1.331 5.322 6.52 5.077 Q 7.073 5.826 7.416 5.973 Q 7.759 6.12 13.242 5.973 Q 14.272 13.851 13.242 14.04 Q 12.213 14.229 1.142 14.04 Q -0.091 10.406 0.694 5.973 Z " fill="rgb(255,255,255)"/></g></g></svg>